<svg width="597" height="346" viewBox="0 0 597 346" fill="none" xmlns="http://www.w3.org/2000/svg">
<path fill-rule="evenodd" clip-rule="evenodd" d="M15.2193 12.554C14.9228 12.9198 14.6308 13.2801 14.2994 13.622C14.1429 14.5026 13.8282 15.8143 13.3943 17.6227C10.1103 31.3083 9.63637e-05 73.4423 5.07032e-10 172.476C-9.35982e-05 268.669 12.9587 330.282 13.8525 331.749C13.8972 331.823 13.9431 331.901 13.9913 331.982C14.903 333.526 16.6018 336.402 26.3644 337.198C129.141 345.581 298.5 346 298.5 346V0C298.5 0 131.822 0 29.0456 8.17322C18.7699 8.17322 16.9218 10.4535 15.2193 12.554ZM567.954 8.17322C578.23 8.17322 580.077 10.4535 581.78 12.554C582.077 12.9198 582.369 13.2801 582.7 13.622C582.856 14.5026 583.172 15.8143 583.606 17.6227C586.89 31.3083 596.999 73.4423 597 172.476C597 268.669 584.041 330.282 583.147 331.749C583.103 331.823 583.057 331.901 583.008 331.982C582.096 333.526 580.397 336.402 570.635 337.198C467.859 345.581 298.5 346 298.5 346V0C298.5 0 465.177 0 567.954 8.17322Z" fill="white"/>
</svg>
